<svg width="226" height="78" viewBox="0 0 226 78" fill="none" xmlns="http://www.w3.org/2000/svg">
<path d="M9.00391 18.7734L12.9102 21.8691L10.918 23.5684L7.08008 20.4727L9.00391 18.7734ZM13.0469 13.5781V14.2129C13.0469 15.2936 12.8971 16.2637 12.5977 17.123C12.2982 17.9824 11.875 18.7148 11.3281 19.3203C10.7812 19.9258 10.1335 20.3913 9.38477 20.7168C8.64258 21.0358 7.81901 21.1953 6.91406 21.1953C6.00911 21.1953 5.18229 21.0358 4.43359 20.7168C3.6849 20.3913 3.03385 19.9258 2.48047 19.3203C1.93359 18.7148 1.51042 17.9824 1.21094 17.123C0.911458 16.2637 0.761719 15.2936 0.761719 14.2129V13.5781C0.761719 12.4974 0.911458 11.5273 1.21094 10.668C1.51042 9.80208 1.93034 9.06641 2.4707 8.46094C3.01758 7.85547 3.66536 7.39323 4.41406 7.07422C5.16276 6.7487 5.98958 6.58594 6.89453 6.58594C7.79948 6.58594 8.6263 6.7487 9.375 7.07422C10.1237 7.39323 10.7715 7.85547 11.3184 8.46094C11.8652 9.06641 12.2884 9.80208 12.5879 10.668C12.8939 11.5273 13.0469 12.4974 13.0469 13.5781ZM9.81445 14.2129V13.5586C9.81445 12.8359 9.74935 12.1979 9.61914 11.6445C9.49544 11.0846 9.30664 10.6159 9.05273 10.2383C8.80534 9.86068 8.49935 9.57747 8.13477 9.38867C7.77018 9.19336 7.35677 9.0957 6.89453 9.0957C6.41927 9.0957 5.99935 9.19336 5.63477 9.38867C5.27669 9.57747 4.97396 9.86068 4.72656 10.2383C4.48568 10.6159 4.30013 11.0846 4.16992 11.6445C4.04622 12.1979 3.98438 12.8359 3.98438 13.5586V14.2129C3.98438 14.929 4.04622 15.5671 4.16992 16.127C4.30013 16.6803 4.48893 17.1491 4.73633 17.5332C4.98372 17.9173 5.28971 18.207 5.6543 18.4023C6.01888 18.5977 6.4388 18.6953 6.91406 18.6953C7.3763 18.6953 7.78646 18.5977 8.14453 18.4023C8.50911 18.207 8.8151 17.9173 9.0625 17.5332C9.3099 17.1491 9.49544 16.6803 9.61914 16.127C9.74935 15.5671 9.81445 14.929 9.81445 14.2129ZM20.8887 9.48633L17.2168 21H13.8184L19.082 6.78125H21.2305L20.8887 9.48633ZM23.9355 21L20.2539 9.48633L19.873 6.78125H22.0508L27.334 21H23.9355ZM23.7793 15.707V18.168H16.3672V15.707H23.7793ZM33.9453 6.78125V21H30.7715V6.78125H33.9453ZM38.2715 6.78125V9.25195H26.5332V6.78125H38.2715ZM44.6387 9.48633L40.9668 21H37.5684L42.832 6.78125H44.9805L44.6387 9.48633ZM47.6855 21L44.0039 9.48633L43.623 6.78125H45.8008L51.084 21H47.6855ZM47.5293 15.707V18.168H40.1172V15.707H47.5293ZM52.2656 6.78125H57.7246C58.8118 6.78125 59.7526 6.94401 60.5469 7.26953C61.3477 7.59505 61.9629 8.07682 62.3926 8.71484C62.8223 9.35286 63.0371 10.1406 63.0371 11.0781C63.0371 11.8594 62.9102 12.5234 62.6562 13.0703C62.4023 13.6172 62.0443 14.0697 61.582 14.4277C61.1263 14.7858 60.5924 15.0755 59.9805 15.2969L58.9453 15.8633H54.2969L54.2773 13.3926H57.7344C58.2096 13.3926 58.6035 13.3079 58.916 13.1387C59.2285 12.9694 59.4629 12.7318 59.6191 12.4258C59.7819 12.1133 59.8633 11.7487 59.8633 11.332C59.8633 10.9023 59.7819 10.5312 59.6191 10.2188C59.4564 9.90625 59.2155 9.66862 58.8965 9.50586C58.584 9.33659 58.1934 9.25195 57.7246 9.25195H55.4492V21H52.2656V6.78125ZM60.1367 21L56.9434 14.6816L60.3027 14.6719L63.5449 20.8535V21H60.1367ZM78.3496 16.2344H81.5137C81.4616 17.2109 81.1947 18.0736 80.7129 18.8223C80.2376 19.5645 79.5768 20.1471 78.7305 20.5703C77.8841 20.987 76.8783 21.1953 75.7129 21.1953C74.7819 21.1953 73.9486 21.0358 73.2129 20.7168C72.4772 20.3978 71.8522 19.9421 71.3379 19.3496C70.8301 18.7507 70.4395 18.0312 70.166 17.1914C69.8991 16.3451 69.7656 15.3913 69.7656 14.3301V13.4609C69.7656 12.3997 69.9056 11.446 70.1855 10.5996C70.4655 9.75326 70.8659 9.0306 71.3867 8.43164C71.9076 7.83268 72.5326 7.3737 73.2617 7.05469C73.9909 6.73568 74.8047 6.57617 75.7031 6.57617C76.9141 6.57617 77.9362 6.79427 78.7695 7.23047C79.6029 7.66667 80.2474 8.26562 80.7031 9.02734C81.1654 9.78906 81.4421 10.6582 81.5332 11.6348H78.3594C78.3333 11.0814 78.2292 10.6159 78.0469 10.2383C77.8646 9.85417 77.5846 9.56445 77.207 9.36914C76.8294 9.17383 76.3281 9.07617 75.7031 9.07617C75.2474 9.07617 74.847 9.16081 74.502 9.33008C74.1634 9.49935 73.8802 9.76302 73.6523 10.1211C73.431 10.4792 73.265 10.9349 73.1543 11.4883C73.0436 12.0352 72.9883 12.6862 72.9883 13.4414V14.3301C72.9883 15.0788 73.0371 15.7266 73.1348 16.2734C73.2324 16.8203 73.3887 17.2728 73.6035 17.6309C73.8249 17.9889 74.1081 18.2559 74.4531 18.4316C74.7982 18.6074 75.2181 18.6953 75.7129 18.6953C76.2793 18.6953 76.7513 18.6074 77.1289 18.4316C77.5065 18.2493 77.7962 17.9759 77.998 17.6113C78.1999 17.2467 78.3171 16.7878 78.3496 16.2344ZM95.1367 13.5781V14.2129C95.1367 15.2936 94.987 16.2637 94.6875 17.123C94.3945 17.9824 93.9746 18.7148 93.4277 19.3203C92.8874 19.9258 92.2428 20.3913 91.4941 20.7168C90.752 21.0358 89.9284 21.1953 89.0234 21.1953C88.1185 21.1953 87.2917 21.0358 86.543 20.7168C85.7943 20.3913 85.1432 19.9258 84.5898 19.3203C84.043 18.7148 83.6198 17.9824 83.3203 17.123C83.0208 16.2637 82.8711 15.2936 82.8711 14.2129V13.5781C82.8711 12.4974 83.0208 11.5273 83.3203 10.668C83.6198 9.80208 84.0397 9.06641 84.5801 8.46094C85.127 7.85547 85.7747 7.39323 86.5234 7.07422C87.2721 6.7487 88.099 6.58594 89.0039 6.58594C89.9089 6.58594 90.7357 6.7487 91.4844 7.07422C92.2331 7.39323 92.8776 7.85547 93.418 8.46094C93.9648 9.06641 94.388 9.80208 94.6875 10.668C94.987 11.5273 95.1367 12.4974 95.1367 13.5781ZM91.9238 14.2129V13.5586C91.9238 12.8359 91.8587 12.1979 91.7285 11.6445C91.5983 11.0846 91.4095 10.6159 91.1621 10.2383C90.9147 9.86068 90.6087 9.57747 90.2441 9.38867C89.8796 9.19336 89.4661 9.0957 89.0039 9.0957C88.5221 9.0957 88.1022 9.19336 87.7441 9.38867C87.3861 9.57747 87.0833 9.86068 86.8359 10.2383C86.5951 10.6159 86.4095 11.0846 86.2793 11.6445C86.1556 12.1979 86.0938 12.8359 86.0938 13.5586V14.2129C86.0938 14.929 86.1556 15.5671 86.2793 16.127C86.4095 16.6803 86.5983 17.1491 86.8457 17.5332C87.0931 17.9173 87.3958 18.207 87.7539 18.4023C88.1185 18.5977 88.5417 18.6953 89.0234 18.6953C89.4857 18.6953 89.8958 18.5977 90.2539 18.4023C90.6185 18.207 90.9245 17.9173 91.1719 17.5332C91.4193 17.1491 91.6048 16.6803 91.7285 16.127C91.8587 15.5671 91.9238 14.929 91.9238 14.2129ZM98.6133 6.78125H101.25L104.668 16.9473L108.076 6.78125H110.713L105.732 21H103.594L98.6133 6.78125ZM97.0898 6.78125H99.7754L100.273 17.3184V21H97.0898V6.78125ZM109.551 6.78125H112.246V21H109.053V17.3184L109.551 6.78125ZM120.215 16.0586H116.641V13.5879H120.215C120.742 13.5879 121.165 13.5 121.484 13.3242C121.81 13.1484 122.048 12.9076 122.197 12.6016C122.354 12.2891 122.432 11.9375 122.432 11.5469C122.432 11.1432 122.354 10.7689 122.197 10.4238C122.048 10.0723 121.81 9.78906 121.484 9.57422C121.165 9.35938 120.742 9.25195 120.215 9.25195H117.793V21H114.609V6.78125H120.215C121.348 6.78125 122.318 6.98633 123.125 7.39648C123.939 7.80664 124.561 8.36979 124.99 9.08594C125.426 9.79557 125.645 10.6094 125.645 11.5273C125.645 12.4453 125.426 13.2428 124.99 13.9199C124.561 14.597 123.939 15.1243 123.125 15.502C122.318 15.873 121.348 16.0586 120.215 16.0586ZM135.361 6.78125H138.545V16.1172C138.545 17.224 138.311 18.1549 137.842 18.9102C137.38 19.6654 136.735 20.235 135.908 20.6191C135.081 21.0033 134.124 21.1953 133.037 21.1953C131.943 21.1953 130.98 21.0033 130.146 20.6191C129.32 20.235 128.669 19.6654 128.193 18.9102C127.725 18.1549 127.49 17.224 127.49 16.1172V6.78125H130.684V16.1172C130.684 16.7292 130.775 17.2305 130.957 17.6211C131.146 18.0052 131.416 18.2884 131.768 18.4707C132.119 18.6465 132.542 18.7344 133.037 18.7344C133.532 18.7344 133.952 18.6465 134.297 18.4707C134.648 18.2884 134.912 18.0052 135.088 17.6211C135.27 17.2305 135.361 16.7292 135.361 16.1172V6.78125ZM147.441 6.78125V21H144.268V6.78125H147.441ZM151.768 6.78125V9.25195H140.029V6.78125H151.768ZM156.729 6.78125V21H153.555V6.78125H156.729ZM171.025 6.78125V21H167.852L162.48 11.8105V21H159.297V6.78125H162.48L167.861 15.9707V6.78125H171.025ZM184.834 13.4902V19.2227C184.6 19.4896 184.242 19.776 183.76 20.082C183.285 20.388 182.676 20.6517 181.934 20.873C181.191 21.0879 180.306 21.1953 179.277 21.1953C178.346 21.1953 177.5 21.0456 176.738 20.7461C175.977 20.4401 175.322 19.9941 174.775 19.4082C174.229 18.8158 173.805 18.0931 173.506 17.2402C173.213 16.3874 173.066 15.4108 173.066 14.3105V13.4707C173.066 12.3704 173.213 11.3939 173.506 10.541C173.799 9.68815 174.212 8.96875 174.746 8.38281C175.28 7.79036 175.915 7.34115 176.65 7.03516C177.386 6.72917 178.2 6.57617 179.092 6.57617C180.361 6.57617 181.4 6.78125 182.207 7.19141C183.014 7.59505 183.626 8.15495 184.043 8.87109C184.466 9.58724 184.727 10.4108 184.824 11.3418H181.758C181.693 10.8665 181.562 10.4564 181.367 10.1113C181.178 9.76628 180.908 9.5026 180.557 9.32031C180.205 9.13151 179.749 9.03711 179.189 9.03711C178.74 9.03711 178.333 9.13151 177.969 9.32031C177.611 9.5026 177.308 9.7793 177.061 10.1504C176.813 10.5215 176.624 10.9837 176.494 11.5371C176.364 12.084 176.299 12.722 176.299 13.4512V14.3105C176.299 15.0397 176.364 15.681 176.494 16.2344C176.631 16.7878 176.829 17.25 177.09 17.6211C177.35 17.9857 177.679 18.2624 178.076 18.4512C178.48 18.64 178.949 18.7344 179.482 18.7344C179.899 18.7344 180.251 18.7018 180.537 18.6367C180.824 18.5651 181.058 18.4772 181.24 18.373C181.423 18.2624 181.559 18.1615 181.65 18.0703V15.707H179.121V13.4902H184.834ZM1.17188 34.7812H6.63086C7.7181 34.7812 8.65885 34.944 9.45312 35.2695C10.2539 35.5951 10.8691 36.0768 11.2988 36.7148C11.7285 37.3529 11.9434 38.1406 11.9434 39.0781C11.9434 39.8594 11.8164 40.5234 11.5625 41.0703C11.3086 41.6172 10.9505 42.0697 10.4883 42.4277C10.0326 42.7858 9.4987 43.0755 8.88672 43.2969L7.85156 43.8633H3.20312L3.18359 41.3926H6.64062C7.11589 41.3926 7.50977 41.3079 7.82227 41.1387C8.13477 40.9694 8.36914 40.7318 8.52539 40.4258C8.68815 40.1133 8.76953 39.7487 8.76953 39.332C8.76953 38.9023 8.68815 38.5312 8.52539 38.2188C8.36263 37.9062 8.12174 37.6686 7.80273 37.5059C7.49023 37.3366 7.09961 37.252 6.63086 37.252H4.35547V49H1.17188V34.7812ZM9.04297 49L5.84961 42.6816L9.20898 42.6719L12.4512 48.8535V49H9.04297ZM23.7695 46.5391V49H16.2012V46.5391H23.7695ZM17.2852 34.7812V49H14.1016V34.7812H17.2852ZM22.793 40.5039V42.8867H16.2012V40.5039H22.793ZM23.7793 34.7812V37.252H16.2012V34.7812H23.7793ZM32.7051 45.25C32.7051 45.0091 32.6693 44.7943 32.5977 44.6055C32.526 44.4102 32.3958 44.2311 32.207 44.0684C32.0182 43.9056 31.7513 43.7428 31.4062 43.5801C31.0612 43.4108 30.6087 43.2383 30.0488 43.0625C29.4108 42.8542 28.8021 42.6198 28.2227 42.3594C27.6497 42.0924 27.1387 41.7832 26.6895 41.4316C26.2402 41.0801 25.8854 40.6699 25.625 40.2012C25.3711 39.7324 25.2441 39.1855 25.2441 38.5605C25.2441 37.9551 25.3776 37.4082 25.6445 36.9199C25.9115 36.4316 26.2858 36.015 26.7676 35.6699C27.2493 35.3184 27.8158 35.0514 28.4668 34.8691C29.1178 34.6803 29.834 34.5859 30.6152 34.5859C31.6569 34.5859 32.5716 34.7715 33.3594 35.1426C34.1536 35.5072 34.7721 36.0215 35.2148 36.6855C35.6576 37.3431 35.8789 38.1081 35.8789 38.9805H32.7148C32.7148 38.5964 32.6335 38.2578 32.4707 37.9648C32.3145 37.6654 32.0736 37.431 31.748 37.2617C31.429 37.0924 31.0286 37.0078 30.5469 37.0078C30.0781 37.0078 29.6842 37.0794 29.3652 37.2227C29.0527 37.3594 28.8151 37.5482 28.6523 37.7891C28.4961 38.0299 28.418 38.2936 28.418 38.5801C28.418 38.8079 28.4766 39.0163 28.5938 39.2051C28.7174 39.3874 28.8932 39.5599 29.1211 39.7227C29.3555 39.8789 29.6419 40.0286 29.9805 40.1719C30.319 40.3151 30.7064 40.4518 31.1426 40.582C31.9043 40.8229 32.5781 41.0898 33.1641 41.3828C33.7565 41.6758 34.2546 42.0078 34.6582 42.3789C35.0618 42.75 35.3646 43.1699 35.5664 43.6387C35.7747 44.1074 35.8789 44.638 35.8789 45.2305C35.8789 45.862 35.7552 46.4219 35.5078 46.9102C35.2669 47.3984 34.9154 47.8151 34.4531 48.1602C33.9974 48.4987 33.4505 48.7559 32.8125 48.9316C32.1745 49.1074 31.4616 49.1953 30.6738 49.1953C29.9577 49.1953 29.2513 49.1042 28.5547 48.9219C27.8581 48.7331 27.2266 48.4466 26.6602 48.0625C26.1003 47.6784 25.651 47.1901 25.3125 46.5977C24.9805 45.9987 24.8145 45.2891 24.8145 44.4688H27.998C27.998 44.8984 28.0599 45.263 28.1836 45.5625C28.3073 45.8555 28.4831 46.0931 28.7109 46.2754C28.9453 46.4577 29.2285 46.5879 29.5605 46.666C29.8926 46.7441 30.2637 46.7832 30.6738 46.7832C31.1491 46.7832 31.5332 46.7181 31.8262 46.5879C32.1257 46.4512 32.347 46.2656 32.4902 46.0312C32.6335 45.7969 32.7051 45.5365 32.7051 45.25ZM47.4219 46.5391V49H39.8535V46.5391H47.4219ZM40.9375 34.7812V49H37.7539V34.7812H40.9375ZM46.4453 40.5039V42.8867H39.8535V40.5039H46.4453ZM47.4316 34.7812V37.252H39.8535V34.7812H47.4316ZM54.8926 37.4863L51.2207 49H47.8223L53.0859 34.7812H55.2344L54.8926 37.4863ZM57.9395 49L54.2578 37.4863L53.877 34.7812H56.0547L61.3379 49H57.9395ZM57.7832 43.707V46.168H50.3711V43.707H57.7832ZM62.5195 34.7812H67.9785C69.0658 34.7812 70.0065 34.944 70.8008 35.2695C71.6016 35.5951 72.2168 36.0768 72.6465 36.7148C73.0762 37.3529 73.291 38.1406 73.291 39.0781C73.291 39.8594 73.1641 40.5234 72.9102 41.0703C72.6562 41.6172 72.2982 42.0697 71.8359 42.4277C71.3802 42.7858 70.8464 43.0755 70.2344 43.2969L69.1992 43.8633H64.5508L64.5312 41.3926H67.9883C68.4635 41.3926 68.8574 41.3079 69.1699 41.1387C69.4824 40.9694 69.7168 40.7318 69.873 40.4258C70.0358 40.1133 70.1172 39.7487 70.1172 39.332C70.1172 38.9023 70.0358 38.5312 69.873 38.2188C69.7103 37.9062 69.4694 37.6686 69.1504 37.5059C68.8379 37.3366 68.4473 37.252 67.9785 37.252H65.7031V49H62.5195V34.7812ZM70.3906 49L67.1973 42.6816L70.5566 42.6719L73.7988 48.8535V49H70.3906ZM83.623 44.2344H86.7871C86.735 45.2109 86.4681 46.0736 85.9863 46.8223C85.5111 47.5645 84.8503 48.1471 84.0039 48.5703C83.1576 48.987 82.1517 49.1953 80.9863 49.1953C80.0553 49.1953 79.222 49.0358 78.4863 48.7168C77.7507 48.3978 77.1257 47.9421 76.6113 47.3496C76.1035 46.7507 75.7129 46.0312 75.4395 45.1914C75.1725 44.3451 75.0391 43.3913 75.0391 42.3301V41.4609C75.0391 40.3997 75.179 39.446 75.459 38.5996C75.7389 37.7533 76.1393 37.0306 76.6602 36.4316C77.181 35.8327 77.806 35.3737 78.5352 35.0547C79.2643 34.7357 80.0781 34.5762 80.9766 34.5762C82.1875 34.5762 83.2096 34.7943 84.043 35.2305C84.8763 35.6667 85.5208 36.2656 85.9766 37.0273C86.4388 37.7891 86.7155 38.6582 86.8066 39.6348H83.6328C83.6068 39.0814 83.5026 38.6159 83.3203 38.2383C83.138 37.8542 82.8581 37.5645 82.4805 37.3691C82.1029 37.1738 81.6016 37.0762 80.9766 37.0762C80.5208 37.0762 80.1204 37.1608 79.7754 37.3301C79.4368 37.4993 79.1536 37.763 78.9258 38.1211C78.7044 38.4792 78.5384 38.9349 78.4277 39.4883C78.3171 40.0352 78.2617 40.6862 78.2617 41.4414V42.3301C78.2617 43.0788 78.3105 43.7266 78.4082 44.2734C78.5059 44.8203 78.6621 45.2728 78.877 45.6309C79.0983 45.9889 79.3815 46.2559 79.7266 46.4316C80.0716 46.6074 80.4915 46.6953 80.9863 46.6953C81.5527 46.6953 82.0247 46.6074 82.4023 46.4316C82.7799 46.2493 83.0697 45.9759 83.2715 45.6113C83.4733 45.2467 83.5905 44.7878 83.623 44.2344ZM98.0957 40.5039V42.9648H90.7324V40.5039H98.0957ZM91.7383 34.7812V49H88.5547V34.7812H91.7383ZM100.293 34.7812V49H97.1191V34.7812H100.293ZM111.025 34.7812V49H107.852V34.7812H111.025ZM125.322 34.7812V49H122.148L116.777 39.8105V49H113.594V34.7812H116.777L122.158 43.9707V34.7812H125.322ZM135.049 45.25C135.049 45.0091 135.013 44.7943 134.941 44.6055C134.87 44.4102 134.74 44.2311 134.551 44.0684C134.362 43.9056 134.095 43.7428 133.75 43.5801C133.405 43.4108 132.952 43.2383 132.393 43.0625C131.755 42.8542 131.146 42.6198 130.566 42.3594C129.993 42.0924 129.482 41.7832 129.033 41.4316C128.584 41.0801 128.229 40.6699 127.969 40.2012C127.715 39.7324 127.588 39.1855 127.588 38.5605C127.588 37.9551 127.721 37.4082 127.988 36.9199C128.255 36.4316 128.63 36.015 129.111 35.6699C129.593 35.3184 130.16 35.0514 130.811 34.8691C131.462 34.6803 132.178 34.5859 132.959 34.5859C134.001 34.5859 134.915 34.7715 135.703 35.1426C136.497 35.5072 137.116 36.0215 137.559 36.6855C138.001 37.3431 138.223 38.1081 138.223 38.9805H135.059C135.059 38.5964 134.977 38.2578 134.814 37.9648C134.658 37.6654 134.417 37.431 134.092 37.2617C133.773 37.0924 133.372 37.0078 132.891 37.0078C132.422 37.0078 132.028 37.0794 131.709 37.2227C131.396 37.3594 131.159 37.5482 130.996 37.7891C130.84 38.0299 130.762 38.2936 130.762 38.5801C130.762 38.8079 130.82 39.0163 130.938 39.2051C131.061 39.3874 131.237 39.5599 131.465 39.7227C131.699 39.8789 131.986 40.0286 132.324 40.1719C132.663 40.3151 133.05 40.4518 133.486 40.582C134.248 40.8229 134.922 41.0898 135.508 41.3828C136.1 41.6758 136.598 42.0078 137.002 42.3789C137.406 42.75 137.708 43.1699 137.91 43.6387C138.118 44.1074 138.223 44.638 138.223 45.2305C138.223 45.862 138.099 46.4219 137.852 46.9102C137.611 47.3984 137.259 47.8151 136.797 48.1602C136.341 48.4987 135.794 48.7559 135.156 48.9316C134.518 49.1074 133.805 49.1953 133.018 49.1953C132.301 49.1953 131.595 49.1042 130.898 48.9219C130.202 48.7331 129.57 48.4466 129.004 48.0625C128.444 47.6784 127.995 47.1901 127.656 46.5977C127.324 45.9987 127.158 45.2891 127.158 44.4688H130.342C130.342 44.8984 130.404 45.263 130.527 45.5625C130.651 45.8555 130.827 46.0931 131.055 46.2754C131.289 46.4577 131.572 46.5879 131.904 46.666C132.236 46.7441 132.607 46.7832 133.018 46.7832C133.493 46.7832 133.877 46.7181 134.17 46.5879C134.469 46.4512 134.691 46.2656 134.834 46.0312C134.977 45.7969 135.049 45.5365 135.049 45.25ZM146.719 34.7812V49H143.545V34.7812H146.719ZM151.045 34.7812V37.252H139.307V34.7812H151.045ZM156.006 34.7812V49H152.832V34.7812H156.006ZM164.902 34.7812V49H161.729V34.7812H164.902ZM169.229 34.7812V37.252H157.49V34.7812H169.229ZM178.584 34.7812H181.768V44.1172C181.768 45.224 181.533 46.1549 181.064 46.9102C180.602 47.6654 179.958 48.235 179.131 48.6191C178.304 49.0033 177.347 49.1953 176.26 49.1953C175.166 49.1953 174.202 49.0033 173.369 48.6191C172.542 48.235 171.891 47.6654 171.416 46.9102C170.947 46.1549 170.713 45.224 170.713 44.1172V34.7812H173.906V44.1172C173.906 44.7292 173.997 45.2305 174.18 45.6211C174.368 46.0052 174.639 46.2884 174.99 46.4707C175.342 46.6465 175.765 46.7344 176.26 46.7344C176.755 46.7344 177.174 46.6465 177.52 46.4707C177.871 46.2884 178.135 46.0052 178.311 45.6211C178.493 45.2305 178.584 44.7292 178.584 44.1172V34.7812ZM190.664 34.7812V49H187.49V34.7812H190.664ZM194.99 34.7812V37.252H183.252V34.7812H194.99ZM206.23 46.5391V49H198.662V46.5391H206.23ZM199.746 34.7812V49H196.562V34.7812H199.746ZM205.254 40.5039V42.8867H198.662V40.5039H205.254ZM206.24 34.7812V37.252H198.662V34.7812H206.24Z" fill="#191C1D"/>
<path d="M7.58789 67.2031V68.5635H2.30371V67.2031H7.58789ZM2.72754 63.0469V73H1.01172V63.0469H2.72754ZM8.90723 63.0469V73H7.19824V63.0469H8.90723ZM14.9502 64.373L11.9766 73H10.1787L13.9248 63.0469H15.0732L14.9502 64.373ZM17.4385 73L14.458 64.373L14.3281 63.0469H15.4834L19.2432 73H17.4385ZM17.2949 69.3086V70.6689H11.8809V69.3086H17.2949ZM21.0547 63.0469H22.5859L25.4639 70.7236L28.335 63.0469H29.8662L26.0654 73H24.8486L21.0547 63.0469ZM20.3574 63.0469H21.8135L22.0664 69.6914V73H20.3574V63.0469ZM29.1074 63.0469H30.5703V73H28.8545V69.6914L29.1074 63.0469ZM36.6064 64.373L33.6328 73H31.835L35.5811 63.0469H36.7295L36.6064 64.373ZM39.0947 73L36.1143 64.373L35.9844 63.0469H37.1396L40.8994 73H39.0947ZM38.9512 69.3086V70.6689H33.5371V69.3086H38.9512ZM44.9053 73H42.7793L42.793 71.6396H44.9053C45.5205 71.6396 46.0355 71.5052 46.4502 71.2363C46.8695 70.9674 47.1839 70.5824 47.3936 70.0811C47.6077 69.5798 47.7148 68.9827 47.7148 68.29V67.75C47.7148 67.2122 47.6533 66.736 47.5303 66.3213C47.4118 65.9066 47.234 65.5579 46.9971 65.2754C46.7646 64.9928 46.4775 64.7786 46.1357 64.6328C45.7985 64.487 45.4089 64.4141 44.9668 64.4141H42.7383V63.0469H44.9668C45.6276 63.0469 46.2314 63.1585 46.7783 63.3818C47.3252 63.6006 47.7969 63.9173 48.1934 64.332C48.5944 64.7467 48.902 65.2435 49.1162 65.8223C49.3304 66.401 49.4375 67.0482 49.4375 67.7637V68.29C49.4375 69.0055 49.3304 69.6527 49.1162 70.2314C48.902 70.8102 48.5944 71.307 48.1934 71.7217C47.7923 72.1318 47.3138 72.4486 46.7578 72.6719C46.2064 72.8906 45.5889 73 44.9053 73ZM43.7295 63.0469V73H42.0137V63.0469H43.7295ZM58.3789 68.502H55.8428L55.8291 67.251H58.0439C58.4176 67.251 58.7344 67.1963 58.9941 67.0869C59.2585 66.973 59.459 66.8112 59.5957 66.6016C59.7324 66.3874 59.8008 66.1299 59.8008 65.8291C59.8008 65.4964 59.737 65.2253 59.6094 65.0156C59.4818 64.806 59.2858 64.6533 59.0215 64.5576C58.7617 64.4619 58.429 64.4141 58.0234 64.4141H56.3623V73H54.6465V63.0469H58.0234C58.5703 63.0469 59.0579 63.0993 59.4863 63.2041C59.9193 63.3089 60.2861 63.473 60.5869 63.6963C60.8923 63.915 61.1224 64.193 61.2773 64.5303C61.4368 64.8675 61.5166 65.2686 61.5166 65.7334C61.5166 66.1436 61.4186 66.5195 61.2227 66.8613C61.0267 67.1986 60.7373 67.4743 60.3545 67.6885C59.9717 67.9027 59.4954 68.0303 58.9258 68.0713L58.3789 68.502ZM58.3037 73H55.3027L56.0752 71.6396H58.3037C58.6911 71.6396 59.0146 71.5758 59.2744 71.4482C59.5342 71.3161 59.7279 71.1361 59.8555 70.9082C59.9876 70.6758 60.0537 70.4046 60.0537 70.0947C60.0537 69.7712 59.9967 69.4909 59.8828 69.2539C59.7689 69.0124 59.5889 68.8278 59.3428 68.7002C59.0967 68.568 58.7754 68.502 58.3789 68.502H56.4512L56.4648 67.251H58.9736L59.3633 67.7227C59.9102 67.7409 60.359 67.8617 60.71 68.085C61.0654 68.3083 61.3298 68.5977 61.5029 68.9531C61.6761 69.3086 61.7627 69.6914 61.7627 70.1016C61.7627 70.735 61.6237 71.266 61.3457 71.6943C61.0723 72.1227 60.6781 72.4486 60.1631 72.6719C59.6481 72.8906 59.0283 73 58.3037 73ZM65.3242 63.0469V73H63.6084V63.0469H65.3242ZM75.3525 63.0469V73H73.6367L69.1729 65.8701V73H67.457V63.0469H69.1729L73.6504 70.1904V63.0469H75.3525ZM82.5986 63.0469V73H80.8828V63.0469H82.5986ZM88.5801 63.0469L84.5469 67.8389L82.25 70.2725L81.9492 68.5703L83.5898 66.5469L86.4883 63.0469H88.5801ZM86.7344 73L83.46 68.2832L84.6426 67.1143L88.7715 73H86.7344ZM96.3047 67.2031V68.5635H91.0205V67.2031H96.3047ZM91.4443 63.0469V73H89.7285V63.0469H91.4443ZM97.624 63.0469V73H95.915V63.0469H97.624ZM103.667 64.373L100.693 73H98.8955L102.642 63.0469H103.79L103.667 64.373ZM106.155 73L103.175 64.373L103.045 63.0469H104.2L107.96 73H106.155ZM106.012 69.3086V70.6689H100.598V69.3086H106.012ZM115.309 71.6396V73H110.312V71.6396H115.309ZM110.79 63.0469V73H109.074V63.0469H110.79ZM118.467 63.0469V73H116.751V63.0469H118.467ZM122.315 63.0469V73H120.6V63.0469H122.315ZM126.376 67.4014V68.7617H121.878V67.4014H126.376ZM126.943 63.0469V64.4141H121.878V63.0469H126.943ZM130.97 64.373L127.996 73H126.198L129.944 63.0469H131.093L130.97 64.373ZM133.458 73L130.478 64.373L130.348 63.0469H131.503L135.263 73H133.458ZM133.314 69.3086V70.6689H127.9V69.3086H133.314ZM145.448 63.0469H147.157V69.6982C147.157 70.4548 146.993 71.0882 146.665 71.5986C146.337 72.109 145.89 72.4941 145.325 72.7539C144.765 73.0091 144.138 73.1367 143.445 73.1367C142.73 73.1367 142.092 73.0091 141.531 72.7539C140.971 72.4941 140.529 72.109 140.205 71.5986C139.886 71.0882 139.727 70.4548 139.727 69.6982V63.0469H141.436V69.6982C141.436 70.1768 141.518 70.571 141.682 70.8809C141.846 71.1862 142.078 71.4118 142.379 71.5576C142.68 71.7035 143.035 71.7764 143.445 71.7764C143.855 71.7764 144.209 71.7035 144.505 71.5576C144.806 71.4118 145.038 71.1862 145.202 70.8809C145.366 70.571 145.448 70.1768 145.448 69.6982V63.0469ZM156.919 63.0469V73H155.203L150.739 65.8701V73H149.023V63.0469H150.739L155.217 70.1904V63.0469H156.919ZM160.795 63.0469V73H159.079V63.0469H160.795ZM166.339 71.1816L168.957 63.0469H170.851L167.282 73H166.004L166.339 71.1816ZM163.919 63.0469L166.517 71.1816L166.872 73H165.587L162.032 63.0469H163.919ZM178.479 71.6396V73H173.195V71.6396H178.479ZM173.681 63.0469V73H171.965V63.0469H173.681ZM177.789 67.2031V68.543H173.195V67.2031H177.789ZM178.445 63.0469V64.4141H173.195V63.0469H178.445ZM179.881 63.0469H183.401C184.158 63.0469 184.803 63.1608 185.336 63.3887C185.869 63.6165 186.277 63.9538 186.56 64.4004C186.847 64.8424 186.99 65.3893 186.99 66.041C186.99 66.5378 186.899 66.9753 186.717 67.3535C186.535 67.7318 186.277 68.0508 185.944 68.3105C185.612 68.5658 185.215 68.764 184.755 68.9053L184.235 69.1582H181.07L181.057 67.7979H183.429C183.839 67.7979 184.181 67.7249 184.454 67.5791C184.728 67.4333 184.933 67.235 185.069 66.9844C185.211 66.7292 185.281 66.4421 185.281 66.123C185.281 65.7767 185.213 65.4759 185.076 65.2207C184.944 64.9609 184.739 64.7627 184.461 64.626C184.183 64.4847 183.83 64.4141 183.401 64.4141H181.597V73H179.881V63.0469ZM185.562 73L183.224 68.5293L185.021 68.5225L187.394 72.9111V73H185.562ZM193.936 70.4365C193.936 70.2314 193.904 70.0492 193.84 69.8896C193.781 69.7301 193.674 69.5843 193.519 69.4521C193.364 69.32 193.145 69.1924 192.862 69.0693C192.584 68.9417 192.229 68.8118 191.796 68.6797C191.322 68.5339 190.884 68.3721 190.483 68.1943C190.087 68.012 189.741 67.8024 189.444 67.5654C189.148 67.3239 188.918 67.0482 188.754 66.7383C188.59 66.4238 188.508 66.0615 188.508 65.6514C188.508 65.2458 188.592 64.8766 188.761 64.5439C188.934 64.2113 189.178 63.9242 189.492 63.6826C189.811 63.4365 190.187 63.2474 190.62 63.1152C191.053 62.9785 191.532 62.9102 192.056 62.9102C192.794 62.9102 193.43 63.0469 193.963 63.3203C194.501 63.5938 194.913 63.9606 195.2 64.4209C195.492 64.8812 195.638 65.3893 195.638 65.9453H193.936C193.936 65.6172 193.865 65.3278 193.724 65.0771C193.587 64.8219 193.377 64.6214 193.095 64.4756C192.817 64.3298 192.464 64.2568 192.035 64.2568C191.63 64.2568 191.292 64.3184 191.023 64.4414C190.755 64.5645 190.554 64.7308 190.422 64.9404C190.29 65.1501 190.224 65.387 190.224 65.6514C190.224 65.8382 190.267 66.0091 190.354 66.1641C190.44 66.3145 190.572 66.4557 190.75 66.5879C190.928 66.7155 191.151 66.8363 191.42 66.9502C191.689 67.0641 192.006 67.1735 192.37 67.2783C192.922 67.4424 193.402 67.6247 193.812 67.8252C194.223 68.0212 194.564 68.2445 194.838 68.4951C195.111 68.7458 195.316 69.0306 195.453 69.3496C195.59 69.6641 195.658 70.0218 195.658 70.4229C195.658 70.8421 195.574 71.2204 195.405 71.5576C195.237 71.8903 194.995 72.1751 194.681 72.4121C194.371 72.6445 193.997 72.8245 193.56 72.9521C193.127 73.0752 192.644 73.1367 192.11 73.1367C191.632 73.1367 191.16 73.0729 190.695 72.9453C190.235 72.8177 189.816 72.624 189.438 72.3643C189.059 72.0999 188.758 71.7718 188.535 71.3799C188.312 70.9834 188.2 70.5208 188.2 69.9922H189.916C189.916 70.3158 189.971 70.5915 190.08 70.8193C190.194 71.0472 190.351 71.234 190.552 71.3799C190.752 71.5212 190.985 71.626 191.249 71.6943C191.518 71.7627 191.805 71.7969 192.11 71.7969C192.511 71.7969 192.846 71.7399 193.115 71.626C193.389 71.512 193.594 71.3525 193.73 71.1475C193.867 70.9424 193.936 70.7054 193.936 70.4365ZM199.008 63.0469V73H197.292V63.0469H199.008ZM205.03 63.0469V73H203.328V63.0469H205.03ZM208.154 63.0469V64.4141H200.231V63.0469H208.154ZM210.526 63.0469L212.837 67.7979L215.147 63.0469H217.048L213.698 69.3359V73H211.969V69.3359L208.619 63.0469H210.526Z" fill="#4F5967"/>
</svg>
